# Blender 4.5.3 LTS
# www.blender.org
mtllib Sem título.mtl
o pyramid
v 0.000000 3.250000 -0.000000
v 4.687500 1.232955 3.562500
v 4.687500 1.232954 -3.562500
v -4.687500 1.232955 3.562500
v -4.687500 1.232954 -3.562500
v 4.687500 1.232955 3.562500
v 4.687500 1.232954 -3.562500
v 4.687500 -1.187500 3.562500
v 4.687500 -1.187500 -3.562500
v -4.687500 1.232955 3.562500
v -4.687500 1.232954 -3.562500
v -4.687500 -1.187500 3.562500
v -4.687500 -1.187500 -3.562500
vn -0.0000 -1.0000 -0.0000
vn 0.3953 0.9186 -0.0000
vn -0.0000 0.8702 0.4927
vn -0.0000 0.8702 -0.4927
vn -0.3953 0.9186 -0.0000
vn 1.0000 -0.0000 -0.0000
vn -1.0000 -0.0000 -0.0000
vn -0.0000 1.0000 -0.0000
vn -0.0000 -0.0000 1.0000
vn -0.0000 -0.0000 -1.0000
vt 0.292969 0.777344
vt 0.292969 1.000000
vt 0.000000 1.000000
vt 0.000000 0.777344
vt 0.000000 0.391311
vt 0.222656 0.391311
vt 0.111328 0.550781
vt 0.294922 0.647457
vt 0.587891 0.647457
vt 0.441406 0.775391
vt 0.255859 0.516597
vt 0.548828 0.516597
vt 0.402344 0.644531
vt 0.458984 0.381545
vt 0.681641 0.381545
vt 0.570312 0.541016
vt 0.755859 0.775391
vt 0.533203 0.775391
vt 0.533203 0.699219
vt 0.755859 0.699219
vt 0.447266 0.359375
vt 0.447266 0.435547
vt 0.224609 0.435547
vt 0.224609 0.359375
vt 0.000000 0.552734
vt 0.292969 0.552734
vt 0.292969 0.775391
vt 0.000000 0.775391
vt 0.587891 0.777344
vt 0.587891 1.000000
vt 0.294922 1.000000
vt 0.294922 0.777344
vt 0.488281 0.437500
vt 0.488281 0.513672
vt 0.195312 0.513672
vt 0.195312 0.437500
vt 0.787109 0.644531
vt 0.494141 0.644531
vt 0.494141 0.568359
vt 0.787109 0.568359
s 1
usemtl m_86e782d9-da27-b935-2e0d-dbdfd71ca4a3
f 3/1/1 2/2/1 4/3/1 5/4/1
f 2/5/2 3/6/2 1/7/2
f 4/8/3 2/9/3 1/10/3
f 3/11/4 5/12/4 1/13/4
f 5/14/5 4/15/5 1/16/5
f 7/17/6 6/18/6 8/19/6 9/20/6
f 12/21/7 10/22/7 11/23/7 13/24/7
f 10/25/8 6/26/8 7/27/8 11/28/8
f 9/29/1 8/30/1 12/31/1 13/32/1
f 8/33/9 6/34/9 10/35/9 12/36/9
f 11/37/10 7/38/10 9/39/10 13/40/10
