# Blender 4.5.3 LTS
# www.blender.org
mtllib porta.mtl
o cuboid
v -0.062500 1.046875 0.156250
v -0.062500 0.953125 0.156250
v -0.062500 1.046875 0.218750
v -0.062500 0.953125 0.218750
v -0.125000 1.046875 0.156250
v -0.125000 0.953125 0.156250
v -0.125000 1.046875 0.218750
v -0.125000 0.953125 0.218750
v -0.062500 1.093750 0.468750
v -0.062500 1.093750 0.156250
v -0.062500 1.031250 0.468750
v -0.062500 1.031250 0.156250
v -0.125000 1.093750 0.468750
v -0.125000 1.093750 0.156250
v -0.125000 1.031250 0.468750
v -0.125000 1.031250 0.156250
v 0.062500 1.875000 0.500000
v 0.062500 1.875000 -0.500000
v 0.062500 0.000000 0.500000
v 0.062500 -0.000000 -0.500000
v -0.062500 1.875000 0.500000
v -0.062500 1.875000 -0.500000
v -0.062500 0.000000 0.500000
v -0.062500 -0.000000 -0.500000
vn 1.0000 -0.0000 -0.0000
vn -0.0000 -0.0000 -1.0000
vn -0.0000 -0.0000 1.0000
vn -0.0000 -1.0000 -0.0000
vn -1.0000 -0.0000 -0.0000
vn -0.0000 1.0000 -0.0000
vt 0.500000 1.000000
vt 0.375000 1.000000
vt 0.375000 0.937500
vt 0.500000 0.937500
vt 0.125000 0.500000
vt 0.187500 0.500000
vt 0.187500 0.625000
vt 0.125000 0.625000
vt 0.437500 0.750000
vt 0.437500 0.875000
vt 0.375000 0.875000
vt 0.375000 0.750000
vt 0.500000 0.687500
vt 0.437500 0.687500
vt 0.437500 0.625000
vt 0.500000 0.625000
vt 0.375000 0.562500
vt 0.375000 0.625000
vt 0.250000 0.625000
vt 0.250000 0.562500
vt 0.500000 0.500000
vt 0.500000 0.562500
vt 0.437500 0.562500
vt 0.437500 0.500000
vt 0.000000 1.000000
vt 0.000000 0.687500
vt 0.062500 0.687500
vt 0.062500 1.000000
vt 0.125000 0.687500
vt 0.187500 0.687500
vt 0.187500 1.000000
vt 0.125000 1.000000
vt 0.250000 1.000000
vt 0.250000 0.687500
vt 0.312500 0.687500
vt 0.312500 1.000000
vt 0.500000 0.812500
vt 0.562500 0.812500
vt 0.562500 0.875000
vt 0.500000 0.875000
vt 0.000000 0.312500
vt 0.062500 0.312500
vt 0.062500 0.625000
vt 0.000000 0.625000
vt 0.312500 0.437500
vt 0.312500 0.500000
vt 0.250000 0.500000
vt 0.250000 0.437500
vt 0.000000 0.531250
vt 0.250000 0.531250
vt 0.515625 0.531250
vt 0.515625 1.000000
vt 0.265625 1.000000
vt 0.265625 0.531250
vt 0.093750 0.265625
vt 0.125000 0.265625
vt 0.125000 0.515625
vt 0.093750 0.515625
vt 0.171875 0.265625
vt 0.171875 0.515625
vt 0.140625 0.515625
vt 0.140625 0.265625
vt 0.031250 0.046875
vt 0.031250 0.515625
vt 0.000000 0.515625
vt 0.000000 0.046875
vt 0.078125 0.515625
vt 0.046875 0.515625
vt 0.046875 0.046875
vt 0.078125 0.046875
s 1
usemtl m_ad1d7bb2-dfeb-9e26-27df-b2f9452836d7
f 2/1/1 1/2/1 3/3/1 4/4/1
f 5/5/2 1/6/2 2/7/2 6/8/2
f 4/9/3 3/10/3 7/11/3 8/12/3
f 6/13/4 2/14/4 4/15/4 8/16/4
f 7/17/5 5/18/5 6/19/5 8/20/5
f 3/21/6 1/22/6 5/23/6 7/24/6
f 10/25/1 9/26/1 11/27/1 12/28/1
f 13/29/6 9/30/6 10/31/6 14/32/6
f 12/33/4 11/34/4 15/35/4 16/36/4
f 14/37/2 10/38/2 12/39/2 16/40/2
f 15/41/5 13/42/5 14/43/5 16/44/5
f 11/45/3 9/46/3 13/47/3 15/48/3
usemtl m_18a4d981-25c0-f359-31d7-897335f59006
f 18/33/1 17/25/1 19/49/1 20/50/1
f 23/51/5 21/52/5 22/53/5 24/54/5
f 21/55/6 17/56/6 18/57/6 22/58/6
f 20/59/4 19/60/4 23/61/4 24/62/4
f 19/63/3 17/64/3 21/65/3 23/66/3
f 22/67/2 18/68/2 20/69/2 24/70/2
