# Blender 4.5.3 LTS
# www.blender.org
mtllib Sem título.mtl
o cuboid
v -0.750000 1.625000 0.125000
v -0.750000 1.625000 -0.125000
v -0.750000 0.000000 0.125000
v -0.750000 -0.000000 -0.125000
v -1.000000 1.625000 0.125000
v -1.000000 1.625000 -0.125000
v -1.000000 0.000000 0.125000
v -1.000000 -0.000000 -0.125000
v 1.000000 1.625000 0.125000
v 1.000000 1.625000 -0.125000
v 1.000000 0.000000 0.125000
v 1.000000 -0.000000 -0.125000
v 0.750000 1.625000 0.125000
v 0.750000 1.625000 -0.125000
v 0.750000 0.000000 0.125000
v 0.750000 -0.000000 -0.125000
v 1.000000 1.687500 0.125000
v 1.000000 1.687500 -0.875000
v 1.000000 1.625000 0.125000
v 1.000000 1.625000 -0.875000
v -1.000000 1.687500 0.125000
v -1.000000 1.687500 -0.875000
v -1.000000 1.625000 0.125000
v -1.000000 1.625000 -0.875000
v 0.500000 1.546875 -1.187500
v 0.500000 1.531250 -1.187500
v -0.500000 1.546875 -1.187500
v -0.500000 1.531250 -1.187500
v 0.500000 1.796875 0.375000
v -0.500000 1.796875 0.375000
v 0.500000 1.640625 0.375000
v -0.500000 1.640625 0.375000
v 0.750000 1.312500 0.062500
v 0.750000 1.312500 -0.062500
v 0.750000 1.062500 0.062500
v 0.750000 1.062500 -0.062500
v -0.750000 1.312500 0.062500
v -0.750000 1.312500 -0.062500
v -0.750000 1.062500 0.062500
v -0.750000 1.062500 -0.062500
v 0.750000 0.812500 0.062500
v 0.750000 0.812500 -0.062500
v 0.750000 0.562500 0.062500
v 0.750000 0.562500 -0.062500
v -0.750000 0.812500 0.062500
v -0.750000 0.812500 -0.062500
v -0.750000 0.562500 0.062500
v -0.750000 0.562500 -0.062500
v -0.375000 0.357143 -0.775000
v -0.375000 0.357143 -0.875000
v -0.375000 -0.000000 -0.775000
v -0.375000 -0.000000 -0.875000
v -0.500000 0.357143 -0.775000
v -0.500000 0.357143 -0.875000
v -0.500000 -0.000000 -0.775000
v -0.500000 -0.000000 -0.875000
v 0.500000 0.357143 -0.775000
v 0.500000 0.357143 -0.875000
v 0.500000 -0.000000 -0.775000
v 0.500000 -0.000000 -0.875000
v 0.375000 0.357143 -0.775000
v 0.375000 0.357143 -0.875000
v 0.375000 -0.000000 -0.775000
v 0.375000 -0.000000 -0.875000
v 0.500000 0.357143 -0.375000
v 0.500000 0.357143 -0.475000
v 0.500000 -0.000000 -0.375000
v 0.500000 -0.000000 -0.475000
v 0.375000 0.357143 -0.375000
v 0.375000 0.357143 -0.475000
v 0.375000 -0.000000 -0.375000
v 0.375000 -0.000000 -0.475000
v -0.375000 0.357143 -0.375000
v -0.375000 0.357143 -0.475000
v -0.375000 -0.000000 -0.375000
v -0.375000 -0.000000 -0.475000
v -0.500000 0.357143 -0.375000
v -0.500000 0.357143 -0.475000
v -0.500000 -0.000000 -0.375000
v -0.500000 -0.000000 -0.475000
v 0.500000 0.937500 -0.375000
v 0.500000 0.535714 -0.875000
v 0.500000 0.357143 -0.375000
v 0.500000 0.357143 -0.875000
v -0.500000 0.937500 -0.375000
v -0.500000 0.535714 -0.875000
v -0.500000 0.357143 -0.375000
v -0.500000 0.357143 -0.875000
v -0.500000 0.535714 -0.425000
v 0.500000 0.535714 -0.425000
v 0.500000 0.357143 -0.425000
v -0.500000 0.357143 -0.425000
vn 1.0000 -0.0000 -0.0000
vn -1.0000 -0.0000 -0.0000
vn -0.0000 1.0000 -0.0000
vn -0.0000 -1.0000 -0.0000
vn -0.0000 -0.0000 1.0000
vn -0.0000 -0.0000 -1.0000
vn -0.0000 0.9119 -0.4104
vn 0.5300 -0.0000 -0.8480
vn -0.0000 -0.9578 0.2873
vn -0.5300 -0.0000 -0.8480
vn 0.4472 -0.0000 0.8944
vn -0.0000 0.9162 -0.4008
vn -0.4472 -0.0000 0.8944
vn -0.0000 -0.9981 0.0624
vn -0.0000 0.1235 -0.9923
vt 0.164062 0.789062
vt 0.132812 0.789062
vt 0.132812 0.585938
vt 0.164062 0.585938
vt 0.031250 0.507812
vt 0.031250 0.710938
vt 0.000000 0.710938
vt 0.000000 0.507812
vt 0.117188 0.546875
vt 0.148438 0.546875
vt 0.148438 0.578125
vt 0.117188 0.578125
vt 0.359375 0.515625
vt 0.359375 0.546875
vt 0.328125 0.546875
vt 0.328125 0.515625
vt 0.070312 0.507812
vt 0.070312 0.710938
vt 0.039062 0.710938
vt 0.039062 0.507812
vt 0.109375 0.710938
vt 0.078125 0.710938
vt 0.078125 0.507812
vt 0.109375 0.507812
vt 0.203125 0.625000
vt 0.171875 0.625000
vt 0.171875 0.421875
vt 0.203125 0.421875
vt 0.242188 0.398438
vt 0.242188 0.601562
vt 0.210938 0.601562
vt 0.210938 0.398438
vt 0.367188 0.515625
vt 0.398438 0.515625
vt 0.398438 0.546875
vt 0.367188 0.546875
vt 0.148438 0.507812
vt 0.148438 0.539062
vt 0.117188 0.539062
vt 0.117188 0.507812
vt 0.281250 0.398438
vt 0.281250 0.601562
vt 0.250000 0.601562
vt 0.250000 0.398438
vt 0.320312 0.601562
vt 0.289062 0.601562
vt 0.289062 0.398438
vt 0.320312 0.398438
vt 0.382812 0.828125
vt 0.257812 0.828125
vt 0.257812 0.820312
vt 0.382812 0.820312
vt 0.570312 0.632812
vt 0.570312 0.640625
vt 0.445312 0.640625
vt 0.445312 0.632812
vt 0.000000 0.832164
vt 0.250000 0.832164
vt 0.250000 0.957164
vt 0.000000 0.957164
vt 0.437500 0.650157
vt 0.437500 0.775157
vt 0.187500 0.775157
vt 0.187500 0.650157
vt 0.601562 0.808594
vt 0.601562 0.828125
vt 0.476562 0.828125
vt 0.476562 0.808594
vt 0.621094 0.607422
vt 0.496094 0.607422
vt 0.496094 0.605469
vt 0.621094 0.605469
vt 0.187500 1.000000
vt 0.062500 1.000000
vt 0.422391 0.625000
vt 0.422391 0.617188
vt 0.250000 0.609375
vt 0.375000 0.609375
vt 0.694797 0.617188
vt 0.694797 0.625000
vt 0.671439 0.806641
vt 0.671439 0.814453
vt 0.062500 0.798055
vt 0.187500 0.798055
vt 0.406686 0.814453
vt 0.406686 0.806641
vt 0.375000 0.806468
vt 0.250000 0.806468
vt 0.476562 0.796875
vt 0.460938 0.796875
vt 0.460938 0.765625
vt 0.476562 0.765625
vt 0.500000 0.765625
vt 0.500000 0.796875
vt 0.484375 0.796875
vt 0.484375 0.765625
vt 0.445312 0.695312
vt 0.632812 0.695312
vt 0.632812 0.710938
vt 0.445312 0.710938
vt 0.632812 0.671875
vt 0.632812 0.687500
vt 0.445312 0.687500
vt 0.445312 0.671875
vt 0.445312 0.835938
vt 0.445312 0.867188
vt 0.257812 0.867188
vt 0.257812 0.835938
vt 0.578125 1.000000
vt 0.390625 1.000000
vt 0.390625 0.968750
vt 0.578125 0.968750
vt 0.515625 0.539062
vt 0.500000 0.539062
vt 0.500000 0.507812
vt 0.515625 0.507812
vt 0.515625 0.468750
vt 0.515625 0.500000
vt 0.500000 0.500000
vt 0.500000 0.468750
vt 0.445312 0.648438
vt 0.632812 0.648438
vt 0.632812 0.664062
vt 0.445312 0.664062
vt 0.640625 0.867188
vt 0.640625 0.882812
vt 0.453125 0.882812
vt 0.453125 0.867188
vt 0.578125 0.929688
vt 0.578125 0.960938
vt 0.390625 0.960938
vt 0.390625 0.929688
vt 0.578125 0.921875
vt 0.390625 0.921875
vt 0.390625 0.890625
vt 0.578125 0.890625
vt 0.492188 0.593750
vt 0.476562 0.593750
vt 0.476562 0.546875
vt 0.492188 0.546875
vt 0.492188 0.492188
vt 0.492188 0.539062
vt 0.476562 0.539062
vt 0.476562 0.492188
vt 0.000000 0.984375
vt 0.015625 0.984375
vt 0.015625 1.000000
vt 0.000000 1.000000
vt 0.250000 0.984375
vt 0.250000 1.000000
vt 0.234375 1.000000
vt 0.234375 0.984375
vt 0.343750 0.460938
vt 0.343750 0.507812
vt 0.328125 0.507812
vt 0.328125 0.460938
vt 0.367188 0.507812
vt 0.351562 0.507812
vt 0.351562 0.460938
vt 0.367188 0.460938
vt 0.390625 0.507812
vt 0.375000 0.507812
vt 0.375000 0.460938
vt 0.390625 0.460938
vt 0.414062 0.460938
vt 0.414062 0.507812
vt 0.398438 0.507812
vt 0.398438 0.460938
vt 0.507812 0.781250
vt 0.523438 0.781250
vt 0.523438 0.796875
vt 0.507812 0.796875
vt 0.523438 0.757812
vt 0.523438 0.773438
vt 0.507812 0.773438
vt 0.507812 0.757812
vt 0.437500 0.460938
vt 0.437500 0.507812
vt 0.421875 0.507812
vt 0.421875 0.460938
vt 0.460938 0.507812
vt 0.445312 0.507812
vt 0.445312 0.460938
vt 0.460938 0.460938
vt 0.015625 0.500000
vt 0.000000 0.500000
vt 0.000000 0.453125
vt 0.015625 0.453125
vt 0.039062 0.453125
vt 0.039062 0.500000
vt 0.023438 0.500000
vt 0.023438 0.453125
vt 0.515625 0.734375
vt 0.531250 0.734375
vt 0.531250 0.750000
vt 0.515625 0.750000
vt 0.484375 0.468750
vt 0.484375 0.484375
vt 0.468750 0.484375
vt 0.468750 0.468750
vt 0.062500 0.453125
vt 0.062500 0.500000
vt 0.046875 0.500000
vt 0.046875 0.453125
vt 0.085938 0.500000
vt 0.070312 0.500000
vt 0.070312 0.453125
vt 0.085938 0.453125
vt 0.109375 0.500000
vt 0.093750 0.500000
vt 0.093750 0.453125
vt 0.109375 0.453125
vt 0.132812 0.453125
vt 0.132812 0.500000
vt 0.117188 0.500000
vt 0.117188 0.453125
vt 0.523438 0.578125
vt 0.539062 0.578125
vt 0.539062 0.593750
vt 0.523438 0.593750
vt 0.539062 0.554688
vt 0.539062 0.570312
vt 0.523438 0.570312
vt 0.523438 0.554688
vt 0.156250 0.453125
vt 0.156250 0.500000
vt 0.140625 0.500000
vt 0.140625 0.453125
vt 0.515625 0.593750
vt 0.500000 0.593750
vt 0.500000 0.546875
vt 0.515625 0.546875
vt 0.445312 0.724330
vt 0.451562 0.724330
vt 0.451562 0.746652
vt 0.445312 0.796875
vt 0.468750 0.593750
vt 0.462500 0.543527
vt 0.462500 0.521205
vt 0.468750 0.521205
vt 0.328125 0.601562
vt 0.328125 0.554688
vt 0.453125 0.554688
vt 0.453125 0.601562
vt 0.257812 1.000000
vt 0.257812 0.993750
vt 0.382812 0.993750
vt 0.382812 1.000000
vt 0.125000 0.718750
vt 0.125000 0.789062
vt 0.000000 0.789062
vt 0.000000 0.718750
vt 0.578125 0.859375
vt 0.453125 0.859375
vt 0.453125 0.835938
vt 0.578125 0.835938
vt 0.257812 0.929688
vt 0.257812 0.875000
vt 0.382812 0.875000
vt 0.382812 0.929688
vt 0.507812 0.746652
vt 0.507812 0.724330
vt 0.382812 0.937500
vt 0.257812 0.937500
vt 0.406250 0.521205
vt 0.406250 0.543527
s 1
usemtl m_b088a9b5-26d5-9040-ff1c-e92dbe368bcf
f 2/1/1 1/2/1 3/3/1 4/4/1
f 7/5/2 5/6/2 6/7/2 8/8/2
f 5/9/3 1/10/3 2/11/3 6/12/3
f 4/13/4 3/14/4 7/15/4 8/16/4
f 3/17/5 1/18/5 5/19/5 7/20/5
f 6/21/6 2/22/6 4/23/6 8/24/6
f 10/25/1 9/26/1 11/27/1 12/28/1
f 15/29/2 13/30/2 14/31/2 16/32/2
f 13/33/3 9/34/3 10/35/3 14/36/3
f 12/37/4 11/38/4 15/39/4 16/40/4
f 11/41/5 9/42/5 13/43/5 15/44/5
f 14/45/6 10/46/6 12/47/6 16/48/6
f 18/49/1 17/50/1 19/51/1 20/52/1
f 23/53/2 21/54/2 22/55/2 24/56/2
f 21/57/3 17/58/3 18/59/3 22/60/3
f 20/61/4 19/62/4 23/63/4 24/64/4
f 31/65/5 29/66/5 30/67/5 32/68/5
f 27/69/6 25/70/6 26/71/6 28/72/6
f 25/73/7 27/74/7 22/60/7 18/59/7
f 26/71/8 25/70/8 18/75/8 20/76/8
f 28/77/9 26/78/9 20/61/9 24/64/9
f 27/69/10 28/72/10 24/79/10 22/80/10
f 29/66/11 31/65/11 19/81/11 17/82/11
f 30/83/12 29/84/12 17/58/12 21/57/12
f 32/68/13 30/67/13 21/85/13 23/86/13
f 31/87/14 32/88/14 23/63/14 19/62/14
f 34/89/1 33/90/1 35/91/1 36/92/1
f 39/93/2 37/94/2 38/95/2 40/96/2
f 37/97/3 33/98/3 34/99/3 38/100/3
f 36/101/4 35/102/4 39/103/4 40/104/4
f 35/105/5 33/106/5 37/107/5 39/108/5
f 38/109/6 34/110/6 36/111/6 40/112/6
f 42/113/1 41/114/1 43/115/1 44/116/1
f 47/117/2 45/118/2 46/119/2 48/120/2
f 45/121/3 41/122/3 42/123/3 46/124/3
f 44/125/4 43/126/4 47/127/4 48/128/4
f 43/129/5 41/130/5 45/131/5 47/132/5
f 46/133/6 42/134/6 44/135/6 48/136/6
f 50/137/1 49/138/1 51/139/1 52/140/1
f 55/141/2 53/142/2 54/143/2 56/144/2
f 53/145/3 49/146/3 50/147/3 54/148/3
f 52/149/4 51/150/4 55/151/4 56/152/4
f 51/153/5 49/154/5 53/155/5 55/156/5
f 54/157/6 50/158/6 52/159/6 56/160/6
f 58/161/1 57/162/1 59/163/1 60/164/1
f 63/165/2 61/166/2 62/167/2 64/168/2
f 61/169/3 57/170/3 58/171/3 62/172/3
f 60/173/4 59/174/4 63/175/4 64/176/4
f 59/177/5 57/178/5 61/179/5 63/180/5
f 62/181/6 58/182/6 60/183/6 64/184/6
f 66/185/1 65/186/1 67/187/1 68/188/1
f 71/189/2 69/190/2 70/191/2 72/192/2
f 69/193/3 65/194/3 66/195/3 70/196/3
f 68/197/4 67/198/4 71/199/4 72/200/4
f 67/201/5 65/202/5 69/203/5 71/204/5
f 70/205/6 66/206/6 68/207/6 72/208/6
f 74/209/1 73/210/1 75/211/1 76/212/1
f 79/213/2 77/214/2 78/215/2 80/216/2
f 77/217/3 73/218/3 74/219/3 78/220/3
f 76/221/4 75/222/4 79/223/4 80/224/4
f 75/225/5 73/226/5 77/227/5 79/228/5
f 78/229/6 74/230/6 76/231/6 80/232/6
f 83/233/1 91/234/1 90/235/1 81/236/1
f 85/237/2 89/238/2 92/239/2 87/240/2
f 81/241/15 90/242/15 89/243/15 85/244/15
f 87/245/4 92/246/4 91/247/4 83/248/4
f 83/249/5 81/250/5 85/251/5 87/252/5
f 86/253/6 82/254/6 84/255/6 88/256/6
f 86/257/3 89/258/3 90/259/3 82/260/3
f 82/261/1 90/235/1 91/234/1 84/262/1
f 84/263/4 91/247/4 92/246/4 88/264/4
f 88/265/2 92/239/2 89/238/2 86/266/2
